<svg xmlns="http://www.w3.org/2000/svg" viewBox="0 0 76 48" fill="none">
  <!-- KR Monogram with Signature Blue Dot -->
  <g fill="currentColor">
    <!-- K Stem -->
    <rect x="4" y="8" width="6" height="32" rx="0.5"/>
    <!-- K Diagonals -->
    <polygon points="25,8 11,23.5 11,25 25.5,40 17.5,40 7.5,28 7.5,21 17.5,8"/>
    <!-- R Stem -->
    <rect x="30" y="8" width="6" height="32" rx="0.5"/>
    <!-- R Bowl -->
    <path d="M33 8H45C50.5 8 54 11.5 54 16.5C54 21.5 50.5 25 45 25H36V8ZM36 14V19.5H44.5C47 19.5 48.5 18.2 48.5 16.5C48.5 14.8 47 14 44.5 14H36Z" fill-rule="evenodd"/>
    <!-- R Leg -->
    <polygon points="42,23 54.5,40 47.5,40 37,25 42,23"/>
  </g>
  <!-- Accent Blue Signature Dot -->
  <circle cx="64" cy="24" r="3.5" fill="#3157FF"/>
</svg>
